<svg width="40" height="38" viewBox="0 0 40 38" fill="none" xmlns="http://www.w3.org/2000/svg">
<path d="M39.6364 1.26254C39.6364 11.7455 39.6364 22.2284 39.6364 32.7114C39.6159 32.7728 39.5852 32.8239 39.575 32.8853C39.0227 35.7898 36.9159 37.5489 33.95 37.5489C25.4614 37.5489 16.983 37.5489 8.49434 37.5489C8.35116 37.5489 8.19775 37.5489 7.96252 37.5489C9.06707 36.1478 9.10798 34.5932 9.10798 33.008C9.08752 22.6682 9.09775 12.3285 9.09775 1.98868C9.09775 1.83527 9.09775 1.68186 9.09775 1.52845C9.12843 0.925044 9.53752 0.515953 10.1512 0.475044C10.2739 0.464817 10.4068 0.464817 10.5296 0.464817C19.7443 0.464817 28.9591 0.464817 38.1739 0.45459C38.8387 0.464817 39.3398 0.638681 39.6364 1.26254ZM24.3671 13.5557C23.5387 13.5557 22.7102 13.5557 21.8716 13.5557C20.1841 13.5557 18.4966 13.5455 16.8091 13.5557C16.1137 13.5557 15.6227 14.0262 15.6227 14.65C15.6227 15.2739 16.1137 15.7239 16.8091 15.7444C16.8705 15.7444 16.9318 15.7444 17.0034 15.7444C21.8921 15.7444 26.7909 15.7444 31.6796 15.7444C32.5489 15.7444 33.0705 15.3455 33.0705 14.6603C33.0705 14.1285 32.7227 13.525 31.6796 13.5353C29.2455 13.566 26.8114 13.5557 24.3671 13.5557ZM24.3262 9.18868C26.75 9.18868 29.1841 9.18868 31.608 9.18868C31.7818 9.18868 31.9659 9.18868 32.1398 9.16822C32.7739 9.08641 33.183 8.483 33.0398 7.85913C32.9171 7.30686 32.4875 7.01027 31.8023 7.01027C26.8421 7.01027 21.8921 7.01027 16.9318 7.01027C16.8193 7.01027 16.6966 7.01027 16.5841 7.0205C15.8682 7.11254 15.4387 7.84891 15.7148 8.50345C15.9398 9.03527 16.3796 9.18868 16.9318 9.18868C19.3966 9.18868 21.8614 9.18868 24.3262 9.18868ZM24.3671 26.6466C23.1296 26.6466 21.8921 26.6466 20.6443 26.6466C19.3557 26.6466 18.0671 26.6364 16.7682 26.6466C15.9296 26.6569 15.3978 27.4137 15.7046 28.1398C15.95 28.7125 16.4307 28.825 16.9932 28.825C21.8818 28.8148 26.7807 28.825 31.6693 28.825C31.8227 28.825 31.9762 28.825 32.1296 28.8046C32.5898 28.7432 32.9273 28.4262 33.0296 27.9864C33.1932 27.2603 32.6818 26.6569 31.8637 26.6569C29.3784 26.6466 26.8727 26.6466 24.3671 26.6466ZM24.3568 22.2796C26.4023 22.2796 28.4477 22.2796 30.4932 22.2796C31.0046 22.2796 31.5159 22.2898 32.0273 22.2694C32.7739 22.2387 33.2546 21.5432 33.0296 20.8478C32.8659 20.3466 32.4671 20.1114 31.7818 20.1114C26.8421 20.1114 21.8921 20.1114 16.9523 20.1114C16.8398 20.1114 16.7171 20.1114 16.6046 20.1216C16.175 20.1728 15.8682 20.408 15.7148 20.8069C15.4284 21.5432 15.9603 22.2796 16.8091 22.2796C19.325 22.2898 21.8409 22.2796 24.3568 22.2796Z" fill="#242828"/>
<path d="M0.363647 5.62954C0.639784 5.02613 1.12047 4.80113 1.77501 4.82158C3.04319 4.85226 4.30115 4.83181 5.56933 4.83181C6.51024 4.83181 6.89887 5.22045 6.89887 6.16135C6.89887 15.4784 6.89887 24.7954 6.89887 34.1125C6.89887 36.1886 5.43637 37.6204 3.4216 37.5386C2.04092 37.4773 0.813647 36.4545 0.455693 35.0534C0.435238 34.9613 0.394329 34.8693 0.363647 34.767C0.363647 25.0613 0.363647 15.3454 0.363647 5.62954Z" fill="#242828"/>
</svg>
