<svg width="40" height="41" viewBox="0 0 40 41" fill="none" xmlns="http://www.w3.org/2000/svg">
<path d="M21.5771 40.3988C20.8156 40.3988 19.9452 40.3988 19.1837 40.3988C19.0749 40.3988 18.9661 40.3988 18.8573 40.29C17.7694 40.0724 16.6815 40.0724 15.5936 39.7461C4.38813 37.1351 -2.24812 25.2769 1.34198 14.289C1.55956 13.7451 1.66835 13.2011 1.88594 12.6571H1.99473C1.99473 12.7659 1.99473 12.8747 1.99473 12.8747C1.88594 13.4187 2.10352 13.745 2.53868 13.8538C2.75626 13.9626 2.75626 14.0714 2.75626 14.289C2.64747 15.0505 2.86505 15.8121 3.30022 16.4648C3.5178 16.7912 3.73538 17.0088 4.27934 16.9C4.17054 16.6824 4.17055 16.356 4.06175 16.2472C3.62659 15.7033 3.30022 15.0505 3.40901 14.289C3.5178 14.289 3.62659 14.289 3.84417 14.289C3.73538 15.2681 4.38813 16.0297 4.82329 16.6824C4.82329 16.7912 4.93208 16.7912 4.93208 16.9C4.93208 17.0088 4.93208 17.1176 4.93208 17.1176C4.60571 17.4439 4.82329 17.7703 5.04087 18.0967C5.25845 18.3143 5.36725 18.5318 5.58483 18.6406C6.01999 18.8582 6.56394 18.8582 6.99911 18.967C7.43427 18.8582 7.43427 18.8582 7.97823 19.0758C7.97823 19.1846 7.97823 19.4022 7.97823 19.511H8.08702C8.84855 19.6198 9.5013 19.8373 9.93646 20.4901C10.0453 20.5989 10.154 20.8165 10.2628 20.8165C10.3716 20.9252 10.5892 21.034 10.8068 21.034C11.242 21.1428 11.5683 21.1428 12.0035 21.1428C12.0035 21.2516 12.0035 21.3604 12.0035 21.3604C12.1123 22.3395 12.1123 22.3395 11.3507 22.8835C11.242 22.9923 11.0244 23.1011 11.0244 23.3186C10.9156 23.8626 10.698 24.4066 10.9156 24.8417C11.0244 25.2769 11.4595 25.712 11.7859 26.1472C11.8947 26.256 12.0035 26.3648 12.0035 26.4736C12.1123 26.6912 12.2211 27.0175 12.3299 27.2351C12.3299 27.3439 12.4387 27.4527 12.5474 27.4527C13.2002 27.5615 13.5266 27.9967 14.0705 28.323C14.1793 28.4318 14.2881 28.6494 14.2881 28.7582C14.2881 29.6285 14.2881 30.4988 14.2881 31.3692C14.2881 31.6955 14.1793 32.0219 14.7233 32.0219C14.7233 32.3483 14.6145 32.6747 14.6145 32.8922C14.5057 33.3274 14.5057 33.7626 14.8321 34.0889C14.9408 34.3065 15.1584 34.5241 15.1584 34.7417C14.9408 35.7208 15.1584 36.4823 15.7024 37.2439C15.8112 37.3527 15.8112 37.4615 15.8112 37.4615C16.4639 38.1142 17.0079 38.8757 17.987 38.6582C18.0958 38.6582 18.2046 38.5494 18.3134 38.4406C18.3134 38.3318 18.3134 38.223 18.2046 38.1142C18.0958 38.0054 17.987 37.8966 17.7694 37.7878C17.443 37.5703 17.443 37.3527 17.5518 37.0263C17.6606 36.8087 17.6606 36.4823 17.7694 36.2648C17.3342 36.2648 17.0079 36.2648 16.8991 35.8296C17.1167 35.5032 17.2255 35.2856 17.443 35.0681C17.2255 34.9593 17.2255 34.9593 17.1167 34.9593C17.0079 34.8505 16.8991 34.7417 16.7903 34.7417C16.8991 34.6329 17.0079 34.6329 17.1167 34.5241C17.6606 34.3065 18.0958 34.1977 18.6397 33.9802C18.7485 33.9802 18.8573 33.8714 18.8573 33.7626C19.1837 33.3274 19.4013 32.7835 19.7276 32.4571C20.2716 31.9131 20.3804 31.3692 20.1628 30.6076C19.9452 30.1725 20.3804 29.7373 20.9243 29.7373C21.2507 29.7373 21.5771 29.7373 21.9035 29.6285C22.3386 29.4109 22.5562 28.9758 22.5562 28.5406C22.5562 28.2142 22.665 27.9967 22.665 27.6703C22.665 27.0175 22.8826 26.5824 23.3177 26.1472C23.5353 25.8208 23.6441 25.4945 23.8617 25.0593C23.3177 24.9505 22.8826 24.7329 22.665 24.2978C22.5562 24.0802 22.3386 23.9714 22.121 23.9714C21.4683 23.9714 20.7068 23.9714 20.054 23.7538C19.5101 23.5362 19.2925 23.3186 19.2925 22.6659C19.2925 22.0132 18.8573 21.578 18.2046 21.578H18.0958C17.7694 21.6868 17.5518 21.4692 17.3342 21.1428C17.1167 20.7077 16.8991 20.2725 16.2463 20.1637C16.3551 20.4901 16.0288 20.4901 15.8112 20.4901C15.4848 20.4901 15.0496 20.7077 14.8321 20.2725C14.5057 19.7285 13.9617 19.8373 13.5266 19.7285C13.4178 19.7285 13.0914 19.9461 12.9826 20.1637C12.6562 20.8165 12.1123 20.9253 11.4595 20.7077C11.3507 20.7077 11.242 20.5989 11.0244 20.5989C10.8068 20.5989 10.698 20.4901 10.698 20.2725C10.698 19.7285 10.5892 19.2934 10.5892 18.7494C10.154 18.6406 9.82767 18.6406 9.5013 18.5319C9.61009 18.0967 10.154 17.7703 9.71888 17.2264C9.28372 17.4439 8.95734 17.7703 8.63097 17.9879C7.97823 18.4231 7.32548 18.2055 7.1079 17.4439C6.99911 17.2264 7.1079 16.9 7.21669 16.7912C7.43427 16.4648 7.65185 15.9209 7.97823 15.5945C8.95734 14.7242 10.2628 15.0505 11.3507 15.0505C11.4595 15.8121 11.4595 15.9209 12.2211 16.1384C12.2211 16.0297 12.2211 15.9209 12.2211 15.8121C12.0035 15.0505 12.4387 14.6154 13.0914 14.1802C13.2002 14.0714 13.309 14.0714 13.4178 13.9626C13.7441 13.7451 14.1793 13.5275 14.1793 12.9835V12.8747C14.6145 12.4396 14.9408 11.8956 15.4848 11.678C16.1375 11.3516 16.6815 10.9165 17.1167 10.3725C17.3342 10.0462 17.6606 10.0462 17.987 10.3725C17.987 10.155 17.987 10.1549 18.0958 10.0462C18.0958 9.93737 18.2046 9.93737 18.2046 9.82858C17.987 9.82858 17.8782 9.71979 17.7694 9.71979C17.5518 9.611 17.5518 9.39341 17.6606 9.17583C17.8782 9.06704 18.3134 9.06704 18.4222 9.28462C18.5309 9.5022 18.6397 9.5022 18.8573 9.5022C19.0749 9.5022 19.2925 9.50221 19.4013 9.39341C19.5101 9.17583 19.6189 9.06704 19.8364 9.28462C19.8364 9.39341 19.7276 9.611 19.7276 9.71979C19.7276 9.82858 19.6189 10.155 19.7276 10.155C20.1628 10.2637 20.598 10.4813 20.9243 10.5901C21.0331 10.1549 20.9243 10.0462 20.598 9.82858C20.3804 9.71979 20.054 9.71979 20.054 9.39341C20.1628 9.28462 20.3804 9.28462 20.4892 9.17583C20.598 9.06704 20.7068 8.95825 20.7068 8.84946C20.7068 8.63188 20.7068 8.30551 20.598 8.30551C20.054 8.08792 19.9452 7.65276 19.9452 7.10881C19.9452 7.00001 19.9452 6.89122 19.9452 6.78243C19.5101 7.00001 19.0749 7.10881 18.5309 7.32639C18.5309 6.89122 18.5309 6.67364 18.6397 6.34727C18.3134 6.23848 17.987 6.12969 17.6606 6.12969C17.0079 6.0209 16.6815 6.34727 16.6815 7.00001C16.6815 7.32639 16.6815 7.54397 16.6815 7.87034C16.5727 7.87034 16.4639 7.97913 16.4639 7.97913C15.92 8.08792 15.4848 8.30551 15.2672 8.95825C15.2672 9.06704 14.9408 9.17583 14.7233 9.28462C14.7233 8.74067 14.7233 8.4143 14.7233 8.08792C14.3969 8.08792 14.1793 7.97913 13.8529 7.97913C13.4178 7.87034 13.0914 7.54397 13.0914 7.10881C12.9826 6.67364 13.4178 6.78243 13.6354 6.56485C13.8529 6.34727 14.1793 6.23848 14.3969 6.12969C14.8321 5.91211 15.2672 5.80331 15.7024 5.58573C15.8112 5.80331 15.8112 6.0209 15.8112 6.23848C16.1375 6.0209 16.4639 5.91211 16.7903 5.69452C16.6815 5.58573 16.6815 5.47694 16.5727 5.25936C16.8991 5.15057 17.1167 5.15057 17.3342 5.04178C17.6606 4.60661 18.0958 4.60661 18.5309 4.49782C18.9661 4.38903 19.4013 4.49782 19.6189 4.93299C19.1837 5.15057 18.7485 5.47694 18.2046 5.69452C18.8573 5.91211 19.5101 6.0209 20.054 6.12969C20.054 6.0209 20.1628 5.91211 20.1628 5.91211C20.2716 5.58573 20.3804 5.47694 20.7068 5.58573C21.1419 5.69452 21.2507 5.36815 21.3595 5.04178C20.8156 4.93299 20.8156 4.93299 20.8156 4.38903C20.8156 4.28024 20.7068 4.17145 20.7068 4.17145C19.7276 3.6275 18.8573 3.08354 17.7694 3.40991C17.1167 3.6275 16.8991 3.84508 16.8991 4.49782C16.8991 4.60661 16.8991 4.71541 16.8991 4.8242C16.6815 4.71541 16.2463 4.71541 16.1375 4.49782C15.8112 3.95387 16.4639 3.84508 16.6815 3.40991C16.2463 3.40991 15.92 3.30112 15.4848 3.30112C15.1584 3.30112 14.9408 3.40991 14.9408 3.84508C15.0496 3.84508 15.2672 3.95387 15.376 3.95387C15.2672 4.17145 15.2672 4.38903 15.1584 4.38903C14.8321 4.49782 14.3969 4.38903 14.2881 4.8242C14.2881 4.8242 14.2881 4.8242 14.1793 4.8242C13.8529 4.8242 13.4178 4.8242 13.0914 4.8242C13.0914 4.60661 13.0914 4.38903 12.9826 4.17145C13.309 4.17145 13.6354 4.17145 13.9617 4.06266C14.2881 3.95387 14.3969 3.6275 14.7233 3.40991C14.6145 3.30112 14.5057 3.30112 14.3969 3.19233C14.2881 3.19233 14.2881 3.30112 14.2881 3.30112C13.6354 3.84508 13.2002 3.84508 12.6562 3.19233C12.5474 3.08354 12.4387 2.97475 12.3299 2.97475C11.3507 2.86596 10.698 3.40991 10.154 3.95387C10.3716 3.95387 10.5892 3.95387 10.8068 3.95387C11.3507 3.95387 11.3507 4.06266 11.1332 4.49782C12.2211 4.71541 12.2211 4.71541 12.3299 4.93299C11.8947 4.93299 11.4595 4.93299 11.1332 4.93299V4.8242C10.3716 4.38903 9.61009 4.17145 8.73976 4.17145C9.5013 3.6275 10.2628 3.08354 11.1332 2.64838C13.0914 1.56047 15.2672 0.907724 17.5518 0.581351C18.2046 0.47256 18.8573 0.47256 19.4013 0.36377C20.054 0.36377 20.8156 0.36377 21.4683 0.36377C22.0123 0.47256 22.5562 0.47256 23.1002 0.581351C26.3639 1.01651 29.41 2.32201 32.1298 4.28024C32.6738 4.60661 33.1089 5.04178 33.6529 5.47694C33.4353 5.69452 33.2177 5.80331 33.0001 5.91211C32.7826 6.12969 32.4562 6.23848 32.2386 6.45606C32.021 6.67364 32.1298 7.00001 32.4562 7.10881C32.565 7.10881 32.6738 7.2176 32.7825 7.32639C32.8913 7.43518 32.8913 7.65276 33.0001 7.76155C33.3265 7.65276 33.5441 7.54397 33.8705 7.43518C33.8705 7.76155 33.9793 8.08792 33.9793 8.4143C33.6529 8.4143 33.4353 8.30551 33.2177 8.30551C32.7826 8.30551 32.3474 8.3055 32.1298 8.74067C31.9122 9.28462 31.4771 9.5022 30.9331 9.5022C30.8243 9.5022 30.7155 9.611 30.7155 9.71979C30.6067 9.93737 30.6067 10.155 30.6067 10.3725C30.7155 10.4813 30.9331 10.4813 31.0419 10.5901C31.0419 10.8077 30.9331 10.9165 30.9331 11.0253C30.3892 11.0253 29.8452 11.0253 29.3012 11.0253C28.9749 11.0253 28.7573 11.3517 28.7573 11.7868C28.7573 12.0044 28.7573 12.222 28.8661 12.4396C28.8661 12.5484 29.0837 12.7659 29.1925 12.7659C29.7364 12.8747 30.3892 12.8747 30.9331 12.8747L31.0419 12.7659C31.3683 12.3308 31.6946 11.7868 32.021 11.3517C32.1298 11.2429 32.3474 11.1341 32.4562 11.2429C32.7826 11.3517 33.0001 11.2429 33.1089 11.0253C32.8913 11.0253 33.0001 11.0253 33.0001 11.0253C33.3265 11.2429 33.5441 11.5692 33.8705 11.7868C34.1968 12.0044 34.5232 12.222 34.7408 12.4396C34.632 12.8747 34.1968 12.5484 33.9793 12.6571C34.088 12.9835 34.3056 13.0923 34.632 13.0923C34.9584 13.0923 35.176 12.8747 35.0672 12.5483C35.0672 12.4396 35.176 12.3308 35.176 12.1132C34.9584 12.0044 34.7408 11.7868 34.5232 11.678C34.088 11.4604 33.8705 11.1341 33.8705 10.6989C34.3056 10.5901 34.7408 10.5901 35.0672 11.0253C35.176 11.1341 35.3935 11.2429 35.5023 11.4604C35.6111 11.5692 35.7199 11.7868 35.7199 11.8956C35.6111 12.5484 36.1551 12.7659 36.4814 13.2011C36.8078 12.7659 36.5902 12.0044 37.3518 11.8956C37.3518 12.1132 37.3518 12.3308 37.4606 12.5483C37.5693 12.9835 37.8957 13.3099 38.4397 13.3099C38.6573 13.3099 38.9836 13.3099 39.0924 13.4187C39.31 13.8538 39.4188 14.3978 39.6364 14.9417C39.2012 14.9417 38.7661 14.9417 38.3309 14.9417C38.0045 14.9417 37.7869 14.9417 37.5694 14.7242C37.1342 14.1802 36.5902 14.1802 35.9375 14.3978C35.9375 14.6154 35.9375 14.7242 35.9375 14.9417C35.8287 14.9417 35.7199 14.9417 35.6111 14.9417C34.9584 14.7242 34.3056 14.5066 33.6529 14.289C33.5441 14.289 33.4353 14.0714 33.4353 13.9626C33.4353 13.6363 33.4353 13.4187 33.4353 13.0923C32.7826 13.0923 32.2386 13.2011 31.6946 13.2011C31.5859 13.2011 31.3683 13.2011 31.2595 13.2011C31.1507 13.2011 31.0419 13.2011 30.9331 13.3099C30.4979 13.6363 29.954 13.6363 29.41 13.5275C28.9749 13.4187 28.7573 13.745 28.3221 13.8538C27.7782 14.0714 27.887 14.3978 27.887 14.833C27.887 15.1593 27.7782 15.3769 27.5606 15.4857C27.0166 15.8121 26.5815 16.2472 26.0375 16.5736C25.8199 16.7912 25.7111 16.9 25.8199 17.2264C25.9287 17.3351 26.0375 17.4439 26.2551 17.6615C26.2551 17.7703 26.3639 18.0967 26.1463 18.2055C25.8199 18.3143 25.9287 18.6406 25.9287 18.8582C25.9287 19.1846 25.9287 19.511 25.9287 19.7285C25.9287 19.9461 26.0375 20.1637 26.1463 20.2725C26.5815 20.8165 27.1254 21.4692 27.6694 22.0132C27.7782 22.1219 27.9958 22.2307 28.2133 22.2307C28.8661 22.2307 29.5188 22.1219 30.1716 22.1219C30.2804 22.1219 30.3892 22.0132 30.3892 22.0132C30.9331 21.578 31.3683 21.578 31.9122 22.0132C32.021 22.1219 32.1298 22.1219 32.2386 22.1219C32.565 22.1219 32.8913 22.2307 33.3265 22.2307C32.8913 23.3186 33.2177 24.2978 33.8705 25.1681C34.088 25.4945 34.5232 25.9296 34.5232 26.3648C34.5232 26.8 34.1968 27.1263 33.9793 27.5615C33.7617 27.9967 33.8705 28.4318 34.1968 28.6494C34.4144 28.867 34.5232 29.0846 34.5232 29.5197C34.5232 29.8461 34.5232 30.1725 34.5232 30.3901C34.5232 30.4988 34.5232 30.7164 34.632 30.7164C35.176 31.2604 35.3935 31.9131 35.2847 32.7835V32.8922C35.5023 32.8922 35.6111 32.8922 35.8287 33.001C35.8287 33.1098 35.8287 33.1098 35.7199 33.1098C32.565 36.8087 28.6485 39.2021 23.7529 40.0724C23.1002 40.1812 22.3386 40.29 21.5771 40.3988Z" fill="#242828"/>
</svg>
