<svg width="40" height="40" viewBox="0 0 40 40" fill="none" xmlns="http://www.w3.org/2000/svg">
<path d="M39.6364 18.8643C39.6364 19.6625 39.6364 20.4606 39.6364 21.2383C39.6159 21.3406 39.575 21.4634 39.575 21.5657C39.4932 22.2411 39.4523 22.9164 39.3091 23.5713C38.3886 28.2988 36.0773 32.2076 32.3341 35.2569C31.9046 35.6253 31.4341 35.9528 30.8818 36.3621C31.1273 36.3621 31.25 36.3621 31.3932 36.3621C33.3159 36.3621 35.2591 36.3621 37.1818 36.3621C38 36.3621 38.8182 36.3416 39.6364 36.3416C39.6364 37.4467 39.6364 38.5518 39.6364 39.6365C32.7023 39.6365 25.7682 39.6365 18.8546 39.6365C18.7523 39.616 18.65 39.5751 18.5682 39.5751C16.1546 39.4114 13.8432 38.8384 11.6955 37.7742C5.64092 34.8272 1.9591 30.0383 0.670466 23.4281C0.527284 22.6708 0.46592 21.9136 0.363647 21.1564C0.363647 20.3787 0.363647 19.6215 0.363647 18.8439C0.384102 18.7415 0.425011 18.6187 0.425011 18.5164C0.609102 15.7741 1.34547 13.175 2.67501 10.7806C5.72274 5.25495 10.3659 1.85773 16.5841 0.670748C17.3409 0.527491 18.0977 0.466096 18.8546 0.36377C19.6318 0.36377 20.3886 0.36377 21.1659 0.36377C21.2682 0.384235 21.3705 0.425165 21.4523 0.425165C23.8455 0.588887 26.1568 1.16191 28.3046 2.20564C34.3591 5.17309 38.0409 9.96195 39.3296 16.5927C39.4727 17.3294 39.5341 18.1071 39.6364 18.8643ZM9.13865 11.5582C6.41819 11.5582 4.2091 13.7275 4.18865 16.4085C4.16819 19.1304 6.37728 21.3611 9.07728 21.3611C11.7773 21.3611 14.0068 19.1508 14.0068 16.4699C14.0273 13.7889 11.8386 11.5787 9.13865 11.5582ZM30.9023 11.5582C28.2023 11.5378 25.9932 13.7275 25.9727 16.429C25.9523 19.1304 28.1614 21.3611 30.8818 21.3815C33.5614 21.402 35.7705 19.1713 35.7909 16.4699C35.8114 13.7685 33.6227 11.5787 30.9023 11.5582ZM18.1591 29.3016C18.1591 26.5797 15.9705 24.3695 13.2909 24.3899C10.5705 24.3899 8.36137 26.5797 8.36137 29.2606C8.36137 31.9825 10.5705 34.2132 13.2705 34.2132C15.9705 34.1928 18.1796 32.003 18.1591 29.3016ZM26.7091 24.3695C24.0091 24.3695 21.8409 26.5592 21.8205 29.2811C21.8205 31.9825 24.0091 34.1723 26.7091 34.1928C29.4091 34.2132 31.6182 31.9825 31.6182 29.2606C31.6386 26.5797 29.45 24.3899 26.7091 24.3695ZM19.9796 3.6382C17.2796 3.65867 15.0909 5.84844 15.0909 8.54985C15.0909 11.2513 17.3 13.4615 20 13.4615C22.7 13.4615 24.9296 11.2308 24.9091 8.52939C24.8886 5.82798 22.6796 3.6382 19.9796 3.6382ZM21.6159 19.9899C21.6159 19.0894 20.8796 18.3732 19.9796 18.3732C19.0796 18.3732 18.3636 19.1099 18.3636 20.0104C18.3636 20.9108 19.1 21.6271 20 21.6271C20.9205 21.6271 21.6364 20.9108 21.6159 19.9899Z" fill="#242828"/>
</svg>
