<svg width="40" height="40" viewBox="0 0 40 40" fill="none" xmlns="http://www.w3.org/2000/svg">
<path d="M20.5372 0.36377C20.778 0.430906 21.0284 0.488452 21.2693 0.555588C24.0533 1.39 25.2864 4.64133 23.7547 7.09661C23.6969 7.19252 23.6391 7.28843 23.5716 7.41311C25.4212 8.30507 26.6254 9.70535 27.136 11.7194C22.3578 11.7194 17.6279 11.7194 12.8401 11.7194C13.3411 9.71494 14.5452 8.31466 16.3274 7.45148C16.1058 6.88561 15.8265 6.3677 15.682 5.80183C15.0558 3.33696 16.7127 0.852908 19.2463 0.430906C19.3234 0.421315 19.3908 0.382951 19.4582 0.36377C19.8147 0.36377 20.1807 0.36377 20.5372 0.36377Z" fill="#242828"/>
<path d="M0.403538 39.6293C0.191605 37.4234 0.740703 34.4886 4.09309 32.8101C3.26463 31.5921 3.01416 30.2589 3.44766 28.8491C3.74629 27.8804 4.34356 27.1035 5.19129 26.5281C6.88675 25.3772 9.1313 25.5498 10.6726 26.9213C12.0117 28.1202 12.8209 30.4795 11.2699 32.8197C12.2814 33.2993 13.1388 33.9611 13.8324 34.901C14.5356 33.9994 15.364 33.2897 16.3852 32.8485C15.1039 30.2398 15.3929 28.1873 17.204 26.7391C18.8417 25.4347 21.1537 25.4347 22.7913 26.7583C24.5831 28.2065 24.8625 30.2685 23.5909 32.8389C24.612 33.2993 25.4597 33.9802 26.1437 34.9106C26.8373 33.9898 27.6754 33.2993 28.7254 32.8293C27.9548 31.6976 27.6754 30.4987 27.974 29.1944C28.2052 28.1873 28.7351 27.3529 29.5539 26.7199C31.2205 25.4155 33.5035 25.4539 35.1412 26.787C36.5188 27.9092 37.5303 30.3357 35.9022 32.8293C38.7152 34.2296 39.823 36.5698 39.611 39.6389C26.5387 39.6293 13.4856 39.6293 0.403538 39.6293Z" fill="#242828"/>
<path d="M26.5483 18.8549C26.5483 22.0295 26.5483 25.1466 26.5483 28.3595C25.2767 25.0986 23.0129 23.3051 19.5353 23.4969C16.4815 23.6696 14.5163 25.4439 13.4374 28.3787C13.4374 25.1466 13.4374 22.0391 13.4374 18.8741C12.0213 18.8741 10.6245 18.8741 9.21802 18.8741C9.21802 17.2532 9.21802 15.6707 9.21802 14.0786C16.4141 14.0786 23.5909 14.0786 30.787 14.0786C30.787 15.6707 30.787 17.2436 30.787 18.8549C29.3805 18.8549 27.9933 18.8549 26.5483 18.8549Z" fill="#242828"/>
</svg>
