<svg width="40" height="40" viewBox="0 0 40 40" fill="none" xmlns="http://www.w3.org/2000/svg">
<path d="M0.363647 19.2555C0.494351 18.2602 0.604946 17.2548 0.755757 16.2594C0.826136 15.7768 0.946785 15.3043 1.08754 14.8418C1.12776 14.7111 1.27857 14.5804 1.40927 14.51C3.05815 13.6252 4.83772 13.1125 6.65751 12.7405C8.50746 12.3584 10.3675 12.0266 12.2174 11.6245C14.7511 11.0715 17.0233 9.92533 19.1346 8.43732C19.3056 8.31667 19.4664 8.19602 19.6373 8.08543C19.6575 8.07537 19.6876 8.06532 19.758 8.03516C20.5322 8.66856 21.3365 9.32208 22.1509 9.9957C21.246 10.6593 20.3814 11.2826 19.5268 11.9361C15.9877 14.6206 12.7101 17.5865 9.82455 20.9647C7.76346 23.3777 5.93362 25.9415 4.71707 28.8974C4.46572 29.5006 4.27469 30.124 4.06355 30.7373C4.01328 30.8781 3.97307 31.0188 3.90269 31.2501C3.58096 30.7373 3.29944 30.315 3.03804 29.8626C1.82149 27.7713 1.03727 25.5293 0.645162 23.1565C0.544621 22.5533 0.514459 21.94 0.44408 21.3267C0.423972 21.1558 0.403864 20.9748 0.383756 20.8039C0.363647 20.281 0.363647 19.7683 0.363647 19.2555Z" fill="#242828"/>
<path d="M21.1756 0.36377C21.4068 0.403986 21.6481 0.444202 21.9196 0.484419C21.9598 1.34907 22.1106 2.25394 21.809 3.08843C21.6381 3.57103 21.2359 3.98324 20.884 4.37535C20.5221 4.78757 20.0898 5.13946 19.7379 5.47125C17.536 4.16422 15.3744 2.87729 13.1323 1.5401C14.2986 1.24853 15.4448 0.936853 16.601 0.685501C17.345 0.524635 18.1091 0.474365 18.8732 0.373824C19.6373 0.36377 20.4115 0.36377 21.1756 0.36377Z" fill="#242828"/>
<path d="M23.6791 11.3628C24.5639 12.3883 25.4285 13.3837 26.3133 14.4192C26.0217 14.6706 25.7704 14.8717 25.5391 15.0828C24.4734 16.0782 23.7495 17.3148 23.3373 18.6721C22.6837 20.8237 22.1006 22.9954 21.5677 25.1771C20.6629 28.8469 19.8485 32.5468 18.642 36.1361C18.2901 37.1717 17.8477 38.1771 17.4556 39.2026C17.3752 39.4238 17.2445 39.4841 17.0233 39.4439C14.7812 39.0819 12.6598 38.3681 10.6691 37.2923C8.8292 36.297 7.20044 35.0301 5.7627 33.522C5.61189 33.3612 5.54151 33.2305 5.57168 32.9892C5.80292 31.4308 6.32573 29.9729 7.01946 28.5654C8.35666 25.8709 10.1563 23.4981 12.1672 21.2862C15.5654 17.536 19.4262 14.3086 23.6791 11.3628Z" fill="#242828"/>
<path d="M27.3488 16.1187C27.761 16.9632 28.1833 17.7474 28.5553 18.5618C29.9327 21.5981 30.7974 24.7752 31.3906 28.0428C31.8129 30.3854 32.0642 32.7481 32.1647 35.1309C32.1748 35.3823 32.1044 35.5432 31.8933 35.704C29.3194 37.6344 26.454 38.8912 23.287 39.4039C22.0302 39.605 20.7533 39.6452 19.386 39.7659C19.6574 39.0923 19.8887 38.5393 20.0898 37.9763C21.3365 34.578 22.1509 31.049 23.0256 27.5502C23.6891 24.8758 24.3628 22.2014 25.1168 19.5471C25.4788 18.23 26.1524 17.0436 27.3488 16.1187Z" fill="#242828"/>
<path d="M34.075 33.8035C33.5623 27.2583 32.2854 21.0248 29.0882 15.2135C29.8423 15.0728 30.546 14.932 31.2599 14.8013C32.6574 14.5499 33.8136 15.113 34.8995 15.8972C36.4076 16.983 37.6241 18.3705 38.8206 19.7781C38.8809 19.8484 38.9211 19.9289 38.9915 19.9792C39.6551 20.5221 39.6852 21.2158 39.6048 22.0101C39.1725 25.8709 37.7749 29.3295 35.3418 32.3557C34.9598 32.8182 34.5576 33.2606 34.075 33.8035Z" fill="#242828"/>
<path d="M18.0689 6.85852C16.9831 7.47181 15.9676 8.07506 14.912 8.61798C13.2932 9.45247 11.5137 9.7742 9.73409 10.106C7.21051 10.5785 4.67688 11.031 2.2639 11.9459C2.23374 11.9559 2.19352 11.9459 2.03265 11.9459C2.61579 10.9505 3.10844 9.97528 3.71169 9.07042C5.43094 6.48651 7.673 4.43548 10.3776 2.88715C10.5987 2.75644 10.7697 2.74639 11.011 2.84693C13.4038 3.91267 15.666 5.19959 17.8276 6.66749C17.888 6.7077 17.9282 6.74792 18.0689 6.85852Z" fill="#242828"/>
<path d="M39.5143 17.4558C38.6296 16.6012 37.785 15.7165 36.86 14.9423C36.1663 14.3592 35.3921 13.8665 34.6079 13.4342C33.1903 12.66 31.6621 12.65 30.1238 12.9918C29.5004 13.1326 28.8871 13.3236 28.2738 13.4643C28.1632 13.4945 27.9722 13.4342 27.9018 13.3538C27.0673 12.3383 26.2429 11.3128 25.3883 10.2571C25.3682 10.3074 25.3682 10.2772 25.3883 10.2671C27.9521 8.52779 30.7371 7.42184 33.8237 7.01967C34.5074 6.92919 34.8794 7.10011 35.2815 7.61286C37.5136 10.418 38.9312 13.5649 39.454 17.114C39.4741 17.2246 39.4942 17.3452 39.5143 17.4558Z" fill="#242828"/>
<path d="M32.8484 5.18972C29.5205 5.61199 26.625 7.06983 23.8802 8.88962C23.0256 8.16573 22.1811 7.46194 21.3868 6.78832C22.1107 5.90356 22.9251 5.07912 23.5182 4.12398C24.1315 3.12863 23.9506 1.92213 23.9405 0.755859C27.2986 1.45965 30.2444 2.90744 32.8484 5.18972Z" fill="#242828"/>
</svg>
