<svg width="48" height="48" viewBox="0 0 48 48" fill="none" xmlns="http://www.w3.org/2000/svg">
<path d="M23.6934 43.6264C23.1823 43.3913 22.8347 43.0336 22.8449 42.4202C22.0067 42.3896 21.2401 42.1749 20.5859 41.6638C19.6864 40.9585 19.1957 40.0488 19.165 38.9039C19.1446 38.035 19.165 37.1662 19.165 36.2769C22.3849 36.2769 25.5844 36.2769 28.8452 36.2769C28.8452 36.6653 28.8452 37.0537 28.8452 37.4524C28.835 38.0861 28.8861 38.7403 28.7941 39.3639C28.5181 41.1118 27.1382 42.3078 25.3595 42.3998C25.3084 42.3998 25.2573 42.41 25.1653 42.4202C25.1755 43.0233 24.8382 43.3913 24.3169 43.6367C24.1022 43.6264 23.8978 43.6264 23.6934 43.6264Z" fill="#242828"/>
<path d="M37.7997 4.36377C38.873 4.87487 39.0059 5.6824 38.1574 6.53082C37.7894 6.89881 37.4215 7.27702 37.0432 7.64501C36.5322 8.13567 35.8268 8.14589 35.3668 7.66546C34.9171 7.19525 34.9375 6.5206 35.4282 6.01973C35.8473 5.5904 36.2664 5.16108 36.7059 4.7522C36.8695 4.59887 37.0739 4.49665 37.2681 4.37399C37.4419 4.36377 37.6259 4.36377 37.7997 4.36377Z" fill="#242828"/>
<path d="M10.7421 4.36377C11.4065 4.96686 12.1016 5.54952 12.7252 6.1935C13.1238 6.6126 13.0216 7.28725 12.6127 7.6859C12.1936 8.09478 11.519 8.13567 11.0794 7.73701C10.5581 7.2668 10.0572 6.76593 9.58704 6.24461C9.01461 5.61085 9.30082 4.79309 10.2004 4.36377C10.3843 4.36377 10.5581 4.36377 10.7421 4.36377Z" fill="#242828"/>
<path d="M4.37387 18.7766C4.64986 18.1122 5.15074 17.8567 5.85605 17.918C6.18315 17.9487 6.52048 17.9078 6.84758 17.9384C7.44045 17.9793 7.85955 18.4189 7.89022 19.0117C7.92089 19.574 7.57334 20.1055 7.00091 20.1668C6.42848 20.2282 5.83561 20.2179 5.25296 20.1668C4.7623 20.1259 4.53742 19.7375 4.36365 19.3184C4.37387 19.1344 4.37387 18.9606 4.37387 18.7766Z" fill="#242828"/>
<path d="M43.6364 19.3184C43.391 20.0135 42.8902 20.269 42.1848 20.2281C41.8782 20.2077 41.5715 20.2384 41.2649 20.2179C40.5698 20.177 40.0996 19.6864 40.1098 19.0424C40.12 18.3882 40.6004 17.9384 41.3057 17.918C41.5817 17.9077 41.868 17.9384 42.1439 17.9077C42.8493 17.8464 43.3501 18.102 43.6261 18.7664C43.6364 18.9606 43.6364 19.1344 43.6364 19.3184Z" fill="#242828"/>
<path d="M24 33.9459C22.3747 33.9459 20.7494 33.9357 19.1343 33.9561C18.8686 33.9561 18.7357 33.8539 18.5824 33.6597C17.6011 32.4944 16.6198 31.3393 15.6078 30.2047C14.0234 28.4363 12.5821 26.5759 11.6417 24.368C8.37064 16.773 12.7354 7.97195 20.729 5.99912C28.4568 4.08761 36.1028 9.1577 37.3294 17.049C37.9018 20.7187 36.9512 24.0613 34.8966 27.1074C33.8028 28.7225 32.474 30.1331 31.1758 31.5846C30.542 32.29 29.9798 33.0464 29.3665 33.7619C29.2745 33.8744 29.0701 33.9357 28.9065 33.9357C27.271 33.9459 25.6355 33.9459 24 33.9459ZM21.7205 21.4751C21.7205 21.9351 21.7103 22.3645 21.7205 22.7836C21.7409 23.448 22.2316 23.9182 22.8756 23.908C23.4991 23.8977 24 23.4378 24.0102 22.7938C24.0204 21.0867 24.0613 19.3694 24 17.6624C23.9284 15.6793 22.4156 14.2687 20.4734 14.2482C18.5108 14.2278 16.9264 15.5669 16.8344 17.4886C16.7526 19.2672 16.8037 21.0663 16.814 22.8449C16.814 23.3355 17.1308 23.6933 17.5806 23.8364C18.3575 24.092 19.0628 23.5706 19.1037 22.712C19.1241 22.2929 19.1037 21.884 19.1037 21.4649C19.993 21.4751 20.8312 21.4751 21.7205 21.4751ZM27.1484 21.6183C26.8928 21.6183 26.6781 21.608 26.4635 21.6183C25.8195 21.6489 25.3493 22.1089 25.3288 22.7324C25.3084 23.3458 25.7684 23.8875 26.4022 23.8977C27.6799 23.9284 28.9576 23.9284 30.2354 23.8977C30.8794 23.8875 31.3087 23.3764 31.3087 22.7324C31.2985 22.0987 30.8487 21.6387 30.1945 21.608C29.9696 21.5978 29.7447 21.608 29.5096 21.608C29.5096 19.8907 29.5096 18.2143 29.5096 16.5073C29.7652 16.5073 30.0003 16.5175 30.2252 16.5073C30.8998 16.4562 31.3189 16.0064 31.3189 15.3624C31.3189 14.7184 30.8998 14.2482 30.2149 14.238C28.9679 14.2073 27.7106 14.2176 26.4635 14.238C25.7991 14.2482 25.3493 14.7287 25.3391 15.3522C25.3289 15.986 25.7888 16.4664 26.4635 16.5175C26.6884 16.5379 26.9133 16.5175 27.1586 16.5175C27.1484 18.2348 27.1484 19.901 27.1484 21.6183Z" fill="#242828"/>
<path d="M12.9705 31.4009C12.8888 31.5542 12.7968 31.8609 12.6026 32.0756C12.1835 32.556 11.7235 32.9955 11.2533 33.4351C10.7728 33.8848 10.0675 33.8746 9.63819 33.4351C9.18843 32.9853 9.17821 32.2902 9.62797 31.82C10.0777 31.3498 10.5377 30.8898 11.0079 30.4401C11.3759 30.0925 11.8155 30.021 12.2857 30.2254C12.7252 30.4196 12.9194 30.7876 12.9705 31.4009Z" fill="#242828"/>
<path d="M36.3481 30.1025C36.5014 30.1843 36.8081 30.2865 37.0227 30.4705C37.4929 30.8794 37.9223 31.3394 38.3516 31.7892C38.8218 32.2798 38.8218 32.9851 38.372 33.4349C37.9223 33.8847 37.217 33.8744 36.7263 33.4042C36.2663 32.9647 35.8165 32.5149 35.377 32.0549C35.0295 31.6869 34.9579 31.2474 35.1726 30.7874C35.3668 30.3376 35.7348 30.1434 36.3481 30.1025Z" fill="#242828"/>
</svg>
